<?xml version="1.0" encoding="UTF-8"?>
<svg id="Calque_1" xmlns="http://www.w3.org/2000/svg" version="1.1" viewBox="0 0 2048 2048">
  <!-- Generator: Adobe Illustrator 29.5.1, SVG Export Plug-In . SVG Version: 2.1.0 Build 141)  -->
  <defs>
    <style>
      .st0 {
        fill: #1d1d1b;
      }

      .st0, .st1, .st2 {
        stroke: #1d1d1b;
        stroke-linecap: round;
        stroke-miterlimit: 10;
      }

      .st1 {
        fill: none;
      }

      .st1, .st2 {
        stroke-width: 50px;
      }

      .st2 {
        fill: #fff;
      }
    </style>
  </defs>
  <polygon class="st2" points="1024 301.27 606.73 1024 1024 1746.73 1441.27 1024 1024 301.27"/>
  <line class="st1" x1="1024" y1="301.27" x2="1024" y2="1746.73"/>
  <polygon class="st2" points="409.3 1207.01 305.28 1642.95 630.81 1951.01 734.83 1515.07 409.3 1207.01"/>
  <line class="st1" x1="409.3" y1="1207.01" x2="630.81" y2="1951.01"/>
  <polygon class="st2" points="1644.23 1187.29 1328.7 1505.58 1446.59 1937.98 1762.12 1619.69 1644.23 1187.29"/>
  <line class="st1" x1="1644.23" y1="1187.29" x2="1446.59" y2="1937.98"/>
  <polygon class="st0" points="606.73 1024 1024 1746.73 1024 301.27 606.73 1024"/>
  <polygon class="st0" points="305.28 1642.95 630.81 1951.01 409.3 1207.01 305.28 1642.95"/>
  <polygon class="st0" points="1328.7 1505.58 1446.59 1937.98 1644.23 1187.29 1328.7 1505.58"/>
</svg>